<?xml version="1.0" standalone="no"?>
<!DOCTYPE svg PUBLIC "-//W3C//DTD SVG 20010904//EN"
 "http://www.w3.org/TR/2001/REC-SVG-20010904/DTD/svg10.dtd">
<svg version="1.0" xmlns="http://www.w3.org/2000/svg"
 width="700.000000pt" height="700.000000pt" viewBox="0 0 700.000000 700.000000"
 preserveAspectRatio="xMidYMid meet">
<metadata>
Created by potrace 1.14, written by Peter Selinger 2001-2017
</metadata>
<g transform="translate(0.000000,700.000000) scale(0.100000,-0.100000)"
fill="#000000" stroke="none">
<path d="M4305 6754 c-33 -7 -76 -15 -95 -19 -43 -7 -98 -16 -125 -22 -11 -2
-36 -6 -55 -9 -19 -2 -55 -9 -80 -14 -25 -5 -61 -11 -80 -14 -19 -4 -46 -8
-60 -11 -41 -8 -133 -25 -165 -30 -16 -3 -66 -12 -110 -20 -96 -18 -129 -23
-175 -31 -19 -3 -93 -16 -165 -29 -71 -13 -141 -26 -155 -28 -14 -3 -77 -14
-140 -26 -63 -11 -132 -23 -154 -27 -21 -3 -48 -8 -60 -10 -11 -2 -46 -8 -76
-14 -30 -6 -65 -12 -76 -14 -12 -2 -37 -7 -55 -10 -19 -3 -83 -14 -144 -25
-60 -11 -126 -23 -145 -26 -35 -6 -223 -40 -422 -76 -59 -11 -127 -22 -150
-25 -142 -20 -272 -81 -364 -171 -99 -96 -120 -139 -257 -523 -90 -249 -219
-607 -258 -715 -22 -60 -52 -141 -66 -180 -13 -38 -33 -92 -43 -120 -11 -27
-58 -158 -105 -290 -47 -132 -94 -262 -105 -289 -11 -27 -20 -53 -20 -58 0 -6
-6 -24 -14 -41 -8 -18 -23 -59 -35 -92 -11 -33 -47 -134 -81 -225 -164 -446
-182 -521 -159 -664 17 -107 82 -241 151 -316 13 -14 59 -68 102 -120 44 -52
82 -97 85 -100 4 -3 26 -30 51 -60 25 -30 55 -66 67 -80 12 -14 101 -119 199
-235 97 -115 194 -230 215 -255 21 -25 106 -126 189 -225 83 -99 175 -207 203
-241 29 -33 70 -83 92 -109 22 -27 119 -142 215 -255 96 -114 218 -258 270
-321 190 -227 276 -296 423 -338 80 -23 211 -26 312 -6 44 8 89 17 100 19 11
2 40 7 65 11 25 4 54 9 65 11 11 2 47 9 80 14 86 14 111 19 195 35 104 20 419
76 453 80 16 2 40 6 55 10 40 8 70 14 132 25 30 5 69 12 85 15 28 5 70 12 120
20 11 2 48 9 82 15 35 6 75 13 90 16 25 4 67 12 158 29 17 3 44 8 60 11 17 3
156 28 310 55 154 28 366 65 470 84 231 40 315 60 371 85 104 45 206 136 267
236 31 52 122 294 441 1182 122 338 197 545 342 947 80 220 161 445 180 500
20 55 42 116 49 135 29 72 38 128 38 225 0 81 -5 114 -26 177 -26 76 -72 160
-113 208 -12 14 -138 162 -279 330 -141 168 -266 316 -278 330 -12 14 -56 66
-97 115 -41 50 -79 95 -85 101 -5 6 -29 33 -51 60 -73 87 -374 444 -534 634
-597 708 -574 683 -681 740 -93 49 -174 68 -286 68 -54 -1 -125 -7 -158 -14z
m-34 -1286 c24 -29 46 -55 49 -58 3 -3 53 -61 110 -130 58 -69 110 -130 115
-136 6 -6 19 -22 30 -35 11 -14 56 -67 101 -119 44 -52 127 -151 185 -220 82
-98 543 -644 610 -725 8 -8 19 -21 24 -28 6 -7 34 -39 63 -73 28 -33 52 -64
52 -68 0 -4 -21 -64 -46 -134 -25 -70 -102 -282 -170 -472 -69 -190 -133 -367
-144 -395 -10 -27 -35 -97 -56 -155 -20 -58 -58 -163 -84 -235 -26 -71 -87
-240 -136 -375 -48 -135 -88 -246 -89 -248 -3 -3 -58 -14 -190 -37 -20 -3
-121 -21 -160 -29 -11 -2 -40 -7 -65 -12 -25 -4 -47 -8 -50 -9 -3 0 -27 -5
-55 -10 -27 -5 -52 -9 -55 -10 -3 0 -27 -4 -53 -9 -27 -4 -59 -10 -70 -12 -12
-3 -38 -7 -57 -10 -19 -3 -55 -9 -80 -14 -53 -11 -214 -40 -250 -45 -14 -2
-61 -11 -105 -19 -44 -9 -98 -18 -120 -21 -22 -4 -123 -22 -225 -40 -102 -19
-201 -37 -220 -40 -19 -3 -46 -7 -60 -10 -14 -3 -41 -7 -60 -10 -19 -3 -44 -9
-55 -12 -11 -3 -29 -7 -40 -8 -27 -2 -106 -15 -126 -21 -15 -4 -151 150 -493
561 -32 38 -69 82 -82 97 -13 15 -60 71 -106 125 -45 54 -84 100 -87 103 -4 3
-38 43 -76 90 -38 47 -72 87 -75 90 -5 4 -216 255 -324 385 -22 27 -67 79 -98
117 -32 37 -58 70 -58 74 0 7 163 461 220 614 15 41 51 138 78 215 28 77 107
295 175 485 69 190 153 424 188 520 34 96 63 176 64 178 3 3 25 8 81 16 22 4
46 8 54 11 8 2 33 6 54 10 21 3 48 7 60 10 24 5 51 10 146 26 36 5 97 16 135
24 39 8 86 16 105 19 19 3 45 8 56 10 12 2 38 7 58 10 19 3 55 10 78 15 24 5
61 12 83 15 22 4 65 11 95 16 30 5 69 12 85 15 17 2 41 7 55 10 33 6 235 42
280 50 19 3 46 8 60 10 59 12 268 50 331 60 19 3 90 16 159 30 69 13 128 24
132 24 3 1 26 -23 49 -51z"/>
</g>
</svg>
